<svg width="546" height="116" viewBox="0 0 546 116" fill="none" xmlns="http://www.w3.org/2000/svg">
<path fill-rule="evenodd" clip-rule="evenodd" d="M22.1873 61.4116C18.4768 22.6993 70.943 7.32583 88.7121 41.9187C92.0865 48.4879 93.1829 55.4049 92.4339 61.9612C90.5688 58.7619 88.0092 55.8453 84.869 53.347C81.3578 50.5535 77.1894 48.3376 72.6018 46.8258C68.0142 45.314 63.0972 44.5358 58.1316 44.5358C53.166 44.5358 48.2491 45.314 43.6614 46.8258C39.0738 48.3376 34.9054 50.5535 31.3942 53.347C27.883 56.1405 25.0978 59.4568 23.1975 63.1067C22.984 63.5168 22.7821 63.9302 22.592 64.3466C22.4178 63.3822 22.2823 62.4033 22.1873 61.4116ZM26.1536 74.619H58.1316H88.4787C82.6805 85.4909 71.313 93.337 57.3189 93.337C43.9091 93.337 32.1183 85.8233 26.1536 74.619Z" fill="white"/>
<path fill-rule="evenodd" clip-rule="evenodd" d="M22.1873 61.4116C18.4768 22.6993 70.943 7.32583 88.7121 41.9187C92.0865 48.4879 93.1829 55.4049 92.4339 61.9612C90.5688 58.7619 88.0092 55.8453 84.869 53.347C81.3578 50.5535 77.1894 48.3376 72.6018 46.8258C68.0142 45.314 63.0972 44.5358 58.1316 44.5358C53.166 44.5358 48.2491 45.314 43.6614 46.8258C39.0738 48.3376 34.9054 50.5535 31.3942 53.347C27.883 56.1405 25.0978 59.4568 23.1975 63.1067C22.984 63.5168 22.7821 63.9302 22.592 64.3466C22.4178 63.3822 22.2823 62.4033 22.1873 61.4116ZM26.1536 74.619H58.1316H88.4787C82.6805 85.4909 71.313 93.337 57.3189 93.337C43.9091 93.337 32.1183 85.8233 26.1536 74.619Z" fill="white"/>
<path d="M106.329 23.1818H119.113L141.34 77.4545H142.158L164.386 23.1818H177.17V93H167.147V42.4773H166.499L145.908 92.8977H137.59L116.999 42.4432H116.352V93H106.329V23.1818ZM213.724 94.0568C208.815 94.0568 204.531 92.9318 200.872 90.6818C197.212 88.4318 194.372 85.2841 192.349 81.2386C190.326 77.1932 189.315 72.4659 189.315 67.0568C189.315 61.625 190.326 56.875 192.349 52.8068C194.372 48.7386 197.212 45.5795 200.872 43.3295C204.531 41.0795 208.815 39.9545 213.724 39.9545C218.633 39.9545 222.917 41.0795 226.576 43.3295C230.235 45.5795 233.076 48.7386 235.099 52.8068C237.122 56.875 238.133 61.625 238.133 67.0568C238.133 72.4659 237.122 77.1932 235.099 81.2386C233.076 85.2841 230.235 88.4318 226.576 90.6818C222.917 92.9318 218.633 94.0568 213.724 94.0568ZM213.758 85.5C216.94 85.5 219.576 84.6591 221.667 82.9773C223.758 81.2955 225.303 79.0568 226.303 76.2614C227.326 73.4659 227.837 70.3864 227.837 67.0227C227.837 63.6818 227.326 60.6136 226.303 57.8182C225.303 55 223.758 52.7386 221.667 51.0341C219.576 49.3295 216.94 48.4773 213.758 48.4773C210.553 48.4773 207.894 49.3295 205.781 51.0341C203.69 52.7386 202.133 55 201.11 57.8182C200.11 60.6136 199.61 63.6818 199.61 67.0227C199.61 70.3864 200.11 73.4659 201.11 76.2614C202.133 79.0568 203.69 81.2955 205.781 82.9773C207.894 84.6591 210.553 85.5 213.758 85.5ZM259.704 61.9091V93H249.511V40.6364H259.295V49.1591H259.943C261.147 46.3864 263.033 44.1591 265.602 42.4773C268.193 40.7955 271.454 39.9545 275.386 39.9545C278.954 39.9545 282.079 40.7045 284.761 42.2045C287.443 43.6818 289.522 45.8864 290.999 48.8182C292.477 51.75 293.215 55.375 293.215 59.6932V93H283.022V60.9205C283.022 57.125 282.033 54.1591 280.056 52.0227C278.079 49.8636 275.363 48.7841 271.908 48.7841C269.545 48.7841 267.443 49.2955 265.602 50.3182C263.783 51.3409 262.34 52.8409 261.272 54.8182C260.227 56.7727 259.704 59.1364 259.704 61.9091ZM322.124 94.1591C318.806 94.1591 315.806 93.5455 313.124 92.3182C310.443 91.0682 308.318 89.2614 306.749 86.8977C305.204 84.5341 304.431 81.6364 304.431 78.2045C304.431 75.25 304.999 72.8182 306.136 70.9091C307.272 69 308.806 67.4886 310.738 66.375C312.67 65.2614 314.829 64.4205 317.215 63.8523C319.602 63.2841 322.033 62.8523 324.511 62.5568C327.647 62.1932 330.193 61.8977 332.147 61.6705C334.102 61.4205 335.522 61.0227 336.408 60.4773C337.295 59.9318 337.738 59.0455 337.738 57.8182V57.5795C337.738 54.6023 336.897 52.2955 335.215 50.6591C333.556 49.0227 331.079 48.2045 327.783 48.2045C324.352 48.2045 321.647 48.9659 319.67 50.4886C317.715 51.9886 316.363 53.6591 315.613 55.5L306.033 53.3182C307.17 50.1364 308.829 47.5682 311.011 45.6136C313.215 43.6364 315.749 42.2045 318.613 41.3182C321.477 40.4091 324.488 39.9545 327.647 39.9545C329.738 39.9545 331.954 40.2045 334.295 40.7045C336.658 41.1818 338.863 42.0682 340.908 43.3636C342.977 44.6591 344.67 46.5114 345.988 48.9205C347.306 51.3068 347.965 54.4091 347.965 58.2273V93H338.011V85.8409H337.602C336.943 87.1591 335.954 88.4545 334.636 89.7273C333.318 91 331.624 92.0568 329.556 92.8977C327.488 93.7386 325.011 94.1591 322.124 94.1591ZM324.34 85.9773C327.158 85.9773 329.568 85.4205 331.568 84.3068C333.59 83.1932 335.124 81.7386 336.17 79.9432C337.238 78.125 337.772 76.1818 337.772 74.1136V67.3636C337.408 67.7273 336.704 68.0682 335.658 68.3864C334.636 68.6818 333.465 68.9432 332.147 69.1705C330.829 69.375 329.545 69.5682 328.295 69.75C327.045 69.9091 325.999 70.0455 325.158 70.1591C323.181 70.4091 321.374 70.8295 319.738 71.4205C318.124 72.0114 316.829 72.8636 315.852 73.9773C314.897 75.0682 314.42 76.5227 314.42 78.3409C314.42 80.8636 315.352 82.7727 317.215 84.0682C319.079 85.3409 321.454 85.9773 324.34 85.9773ZM381.144 94.0227C376.917 94.0227 373.144 92.9432 369.826 90.7841C366.531 88.6023 363.94 85.5 362.053 81.4773C360.19 77.4318 359.258 72.5795 359.258 66.9205C359.258 61.2614 360.201 56.4205 362.087 52.3977C363.997 48.375 366.61 45.2955 369.928 43.1591C373.247 41.0227 377.008 39.9545 381.212 39.9545C384.462 39.9545 387.076 40.5 389.053 41.5909C391.053 42.6591 392.599 43.9091 393.69 45.3409C394.803 46.7727 395.667 48.0341 396.281 49.125H396.894V23.1818H407.087V93H397.133V84.8523H396.281C395.667 85.9659 394.781 87.2386 393.622 88.6705C392.485 90.1023 390.917 91.3523 388.917 92.4205C386.917 93.4886 384.326 94.0227 381.144 94.0227ZM383.394 85.3295C386.326 85.3295 388.803 84.5568 390.826 83.0114C392.872 81.4432 394.417 79.2727 395.462 76.5C396.531 73.7273 397.065 70.5 397.065 66.8182C397.065 63.1818 396.542 60 395.497 57.2727C394.451 54.5455 392.917 52.4205 390.894 50.8977C388.872 49.375 386.372 48.6136 383.394 48.6136C380.326 48.6136 377.769 49.4091 375.724 51C373.678 52.5909 372.133 54.7614 371.087 57.5114C370.065 60.2614 369.553 63.3636 369.553 66.8182C369.553 70.3182 370.076 73.4659 371.122 76.2614C372.167 79.0568 373.712 81.2727 375.758 82.9091C377.826 84.5227 380.372 85.3295 383.394 85.3295ZM444.204 94.0568C439.045 94.0568 434.602 92.9545 430.874 90.75C427.17 88.5227 424.306 85.3977 422.283 81.375C420.283 77.3295 419.283 72.5909 419.283 67.1591C419.283 61.7955 420.283 57.0682 422.283 52.9773C424.306 48.8864 427.124 45.6932 430.738 43.3977C434.374 41.1023 438.624 39.9545 443.488 39.9545C446.443 39.9545 449.306 40.4432 452.079 41.4205C454.852 42.3977 457.34 43.9318 459.545 46.0227C461.749 48.1136 463.488 50.8295 464.761 54.1705C466.033 57.4886 466.67 61.5227 466.67 66.2727V69.8864H425.045V62.25H456.681C456.681 59.5682 456.136 57.1932 455.045 55.125C453.954 53.0341 452.42 51.3864 450.443 50.1818C448.488 48.9773 446.193 48.375 443.556 48.375C440.693 48.375 438.193 49.0795 436.056 50.4886C433.943 51.875 432.306 53.6932 431.147 55.9432C430.011 58.1705 429.443 60.5909 429.443 63.2045V69.1705C429.443 72.6705 430.056 75.6477 431.283 78.1023C432.533 80.5568 434.272 82.4318 436.499 83.7273C438.727 85 441.329 85.6364 444.306 85.6364C446.238 85.6364 447.999 85.3636 449.59 84.8182C451.181 84.25 452.556 83.4091 453.715 82.2955C454.874 81.1818 455.761 79.8068 456.374 78.1705L466.022 79.9091C465.249 82.75 463.863 85.2386 461.863 87.375C459.886 89.4886 457.397 91.1364 454.397 92.3182C451.42 93.4773 448.022 94.0568 444.204 94.0568ZM484.806 40.6364L496.363 61.0227L508.022 40.6364H519.17L502.84 66.8182L519.306 93H508.158L496.363 73.4318L484.602 93H473.42L489.715 66.8182L473.624 40.6364H484.806Z" fill="white"/>
</svg>
