<svg width="142" height="98" viewBox="0 0 142 98" fill="none" xmlns="http://www.w3.org/2000/svg">
<g clip-path="url(#clip0_490_281)">
<path fill-rule="evenodd" clip-rule="evenodd" d="M22.2463 53.4314C17.2286 -0.305303 90.2804 -21.1966 114.433 27.0679C118.444 35.0827 120.023 43.4479 119.581 51.501C119.527 52.4818 118.216 52.7475 117.693 51.9162C115.235 48.0108 112.044 44.4346 108.23 41.3197C103.41 37.3831 97.6872 34.2605 91.3891 32.13C85.0909 29.9996 78.3406 28.903 71.5236 28.903C64.7065 28.903 57.9562 29.9996 51.658 32.13C45.3599 34.2605 39.6373 37.3831 34.8169 41.3197C29.9965 45.2563 26.1727 49.9297 23.564 55.0731V55.0731C23.292 55.6093 22.4791 55.495 22.4053 54.8982C22.3452 54.4116 22.2922 53.9227 22.2463 53.4314ZM28.2524 72.7428C27.8857 72.0892 28.3666 71.2962 29.116 71.2962L71.5236 71.2962L112.5 71.2962C113.25 71.2962 113.731 72.09 113.364 72.7439C105.199 87.286 89.7317 97.6739 70.8124 97.6739C52.6529 97.6739 36.6459 87.7053 28.2524 72.7428Z" fill="white"/>
<path fill-rule="evenodd" clip-rule="evenodd" d="M22.2463 53.4314C17.2286 -0.305303 90.2804 -21.1966 114.433 27.0679C118.444 35.0827 120.023 43.4479 119.581 51.501C119.527 52.4818 118.216 52.7475 117.693 51.9162C115.235 48.0108 112.044 44.4346 108.23 41.3197C103.41 37.3831 97.6872 34.2605 91.3891 32.13C85.0909 29.9996 78.3406 28.903 71.5236 28.903C64.7065 28.903 57.9562 29.9996 51.658 32.13C45.3599 34.2605 39.6373 37.3831 34.8169 41.3197C29.9965 45.2563 26.1727 49.9297 23.564 55.0731V55.0731C23.292 55.6093 22.4791 55.495 22.4053 54.8982C22.3452 54.4116 22.2922 53.9227 22.2463 53.4314ZM28.2524 72.7428C27.8857 72.0892 28.3666 71.2962 29.116 71.2962L71.5236 71.2962L112.5 71.2962C113.25 71.2962 113.731 72.09 113.364 72.7439C105.199 87.286 89.7317 97.6739 70.8124 97.6739C52.6529 97.6739 36.6459 87.7053 28.2524 72.7428Z" fill="white"/>
</g>
<defs>
<clipPath id="clip0_490_281">
<rect width="141.653" height="97.6739" fill="white"/>
</clipPath>
</defs>
</svg>
